HIERARCHY
ROOT Hips
{
  OFFSET 0.0502701 92.146 0
  CHANNELS 6 Xposition Yposition Zposition Zrotation Xrotation Yrotation
  JOINT Bip01_Pelvis
  {
    OFFSET 0 0 0
    CHANNELS 6 Xposition Yposition Zposition Zrotation Xrotation Yrotation
    JOINT BN_Tai_01
    {
      OFFSET -4.6544 -2.06234 0
      CHANNELS 6 Xposition Yposition Zposition Zrotation Xrotation Yrotation
      JOINT BN_Tai_R_01
      {
        OFFSET 10.2279 -0.119812 3.68897
        CHANNELS 6 Xposition Yposition Zposition Zrotation Xrotation Yrotation
        JOINT BN_Tai_R_02
        {
          OFFSET 15.0421 0 1.52588e-005
          CHANNELS 6 Xposition Yposition Zposition Zrotation Xrotation Yrotation
          End Site
          {
            OFFSET 0 0 0
          }
        }
      }
      JOINT BN_Tai_L_01
      {
        OFFSET 10.2279 -0.119797 -3.68907
        CHANNELS 6 Xposition Yposition Zposition Zrotation Xrotation Yrotation
        JOINT BN_Tai_L_02
        {
          OFFSET 15.0421 0 0
          CHANNELS 6 Xposition Yposition Zposition Zrotation Xrotation Yrotation
          End Site
          {
            OFFSET 0 0 0
          }
        }
      }
    }
    JOINT Bip01_Spine
    {
      OFFSET 2.7319 1.49192 0
      CHANNELS 6 Xposition Yposition Zposition Zrotation Xrotation Yrotation
      JOINT Bip01_R_Thigh
      {
        OFFSET -2.85206 -1.24717 -6.20578
        CHANNELS 6 Xposition Yposition Zposition Zrotation Xrotation Yrotation
        JOINT Bip01_R_Calf
        {
          OFFSET 6.73247 0 0
          CHANNELS 6 Xposition Yposition Zposition Zrotation Xrotation Yrotation
          JOINT Bip01_R_HorseLink
          {
            OFFSET 8.08523 0 0
            CHANNELS 6 Xposition Yposition Zposition Zrotation Xrotation Yrotation
            JOINT Bip01_R_Foot
            {
              OFFSET 8.97518 0 0
              CHANNELS 6 Xposition Yposition Zposition Zrotation Xrotation Yrotation
              JOINT BN_Toe_R_30
              {
                OFFSET 1.58762 -0.234982 -0.295153
                CHANNELS 6 Xposition Yposition Zposition Zrotation Xrotation Yrotation
                JOINT BN_Toe_R_31
                {
                  OFFSET 3.03849 0 0
                  CHANNELS 6 Xposition Yposition Zposition Zrotation Xrotation Yrotation
                  End Site
                  {
                    OFFSET 0 0 0
                  }
                }
              }
              JOINT BN_Toe_R_00
              {
                OFFSET 1.65463 0.933666 1.02414
                CHANNELS 6 Xposition Yposition Zposition Zrotation Xrotation Yrotation
                JOINT BN_Toe_R_01
                {
                  OFFSET 3.51775 0 0
                  CHANNELS 6 Xposition Yposition Zposition Zrotation Xrotation Yrotation
                  End Site
                  {
                    OFFSET 0 0 0
                  }
                }
              }
              JOINT BN_Toe_R_20
              {
                OFFSET 1.47309 1.0106 -1.16708
                CHANNELS 6 Xposition Yposition Zposition Zrotation Xrotation Yrotation
                JOINT BN_Toe_R_21
                {
                  OFFSET 3.94896 0 0
                  CHANNELS 6 Xposition Yposition Zposition Zrotation Xrotation Yrotation
                  End Site
                  {
                    OFFSET 0 0 0
                  }
                }
              }
              JOINT BN_Toe_R_10
              {
                OFFSET 1.07522 1.64225 0.0223596
                CHANNELS 6 Xposition Yposition Zposition Zrotation Xrotation Yrotation
                JOINT BN_Toe_R_11
                {
                  OFFSET 4.09655 0 0
                  CHANNELS 6 Xposition Yposition Zposition Zrotation Xrotation Yrotation
                  End Site
                  {
                    OFFSET 0 0 0
                  }
                }
              }
              JOINT Bip01_R_Toe0
              {
                OFFSET 2.04238 1.88275 0
                CHANNELS 6 Xposition Yposition Zposition Zrotation Xrotation Yrotation
                End Site
                {
                  OFFSET 0 0 0
                }
              }
            }
          }
        }
      }
      JOINT Bip01_L_Thigh
      {
        OFFSET -2.85154 -1.24849 6.20577
        CHANNELS 6 Xposition Yposition Zposition Zrotation Xrotation Yrotation
        JOINT Bip01_L_Calf
        {
          OFFSET 6.73247 0 0
          CHANNELS 6 Xposition Yposition Zposition Zrotation Xrotation Yrotation
          JOINT Bip01_L_HorseLink
          {
            OFFSET 8.08524 0 0
            CHANNELS 6 Xposition Yposition Zposition Zrotation Xrotation Yrotation
            JOINT Bip01_L_Foot
            {
              OFFSET 8.97521 0 0
              CHANNELS 6 Xposition Yposition Zposition Zrotation Xrotation Yrotation
              JOINT BN_Toe_L_00
              {
                OFFSET 1.65461 0.933701 -1.02419
                CHANNELS 6 Xposition Yposition Zposition Zrotation Xrotation Yrotation
                JOINT BN_Toe_L_01
                {
                  OFFSET 3.51778 0 0
                  CHANNELS 6 Xposition Yposition Zposition Zrotation Xrotation Yrotation
                  End Site
                  {
                    OFFSET 0 0 0
                  }
                }
              }
              JOINT BN_Toe_L_10
              {
                OFFSET 1.07523 1.6422 -0.0221281
                CHANNELS 6 Xposition Yposition Zposition Zrotation Xrotation Yrotation
                JOINT BN_Toe_L_11
                {
                  OFFSET 4.09657 0 0
                  CHANNELS 6 Xposition Yposition Zposition Zrotation Xrotation Yrotation
                  End Site
                  {
                    OFFSET 0 0 0
                  }
                }
              }
              JOINT BN_Toe_L_30
              {
                OFFSET 1.58761 -0.234954 0.295135
                CHANNELS 6 Xposition Yposition Zposition Zrotation Xrotation Yrotation
                JOINT BN_Toe_L_31
                {
                  OFFSET 3.03847 0 0
                  CHANNELS 6 Xposition Yposition Zposition Zrotation Xrotation Yrotation
                  End Site
                  {
                    OFFSET 0 0 0
                  }
                }
              }
              JOINT BN_Toe_L_20
              {
                OFFSET 1.4731 1.01055 1.1673
                CHANNELS 6 Xposition Yposition Zposition Zrotation Xrotation Yrotation
                JOINT BN_Toe_L_21
                {
                  OFFSET 3.94897 0 0
                  CHANNELS 6 Xposition Yposition Zposition Zrotation Xrotation Yrotation
                  End Site
                  {
                    OFFSET 0 0 0
                  }
                }
              }
              JOINT Bip01_L_Toe0
              {
                OFFSET 2.04238 1.88276 0
                CHANNELS 6 Xposition Yposition Zposition Zrotation Xrotation Yrotation
                End Site
                {
                  OFFSET 0 0 0
                }
              }
            }
          }
        }
      }
      JOINT Bip01_Spine1
      {
        OFFSET 8.6167 -0.00679016 0
        CHANNELS 6 Xposition Yposition Zposition Zrotation Xrotation Yrotation
        JOINT BN_Wing_R_01
        {
          OFFSET 0.267445 -6.12421 -7.49305
          CHANNELS 6 Xposition Yposition Zposition Zrotation Xrotation Yrotation
          JOINT BN_Wing_R_02
          {
            OFFSET 14.7158 0 0
            CHANNELS 6 Xposition Yposition Zposition Zrotation Xrotation Yrotation
            JOINT BN_Wing_R_03
            {
              OFFSET 19.0858 0 0
              CHANNELS 6 Xposition Yposition Zposition Zrotation Xrotation Yrotation
              JOINT BN_Wing_R_05
              {
                OFFSET 2.68908 -0.270637 0.785261
                CHANNELS 6 Xposition Yposition Zposition Zrotation Xrotation Yrotation
                JOINT BN_Wing_R_06
                {
                  OFFSET 21.1083 0 0
                  CHANNELS 6 Xposition Yposition Zposition Zrotation Xrotation Yrotation
                  End Site
                  {
                    OFFSET 0 0 0
                  }
                }
              }
              JOINT BN_Wing_R_04
              {
                OFFSET 27.642 0 0
                CHANNELS 6 Xposition Yposition Zposition Zrotation Xrotation Yrotation
                End Site
                {
                  OFFSET 0 0 0
                }
              }
            }
          }
        }
        JOINT BN_Wing_L_01
        {
          OFFSET 0.267452 -6.12421 7.49305
          CHANNELS 6 Xposition Yposition Zposition Zrotation Xrotation Yrotation
          JOINT BN_Wing_L_02
          {
            OFFSET 14.7158 0 0
            CHANNELS 6 Xposition Yposition Zposition Zrotation Xrotation Yrotation
            JOINT BN_Wing_L_03
            {
              OFFSET 19.0858 0 0
              CHANNELS 6 Xposition Yposition Zposition Zrotation Xrotation Yrotation
              JOINT BN_Wing_L_05
              {
                OFFSET 2.68908 -0.270635 -0.785254
                CHANNELS 6 Xposition Yposition Zposition Zrotation Xrotation Yrotation
                JOINT BN_Wing_L_06
                {
                  OFFSET 21.1083 0 0
                  CHANNELS 6 Xposition Yposition Zposition Zrotation Xrotation Yrotation
                  End Site
                  {
                    OFFSET 0 0 0
                  }
                }
              }
              JOINT BN_Wing_L_04
              {
                OFFSET 27.642 0 1.14441e-005
                CHANNELS 6 Xposition Yposition Zposition Zrotation Xrotation Yrotation
                End Site
                {
                  OFFSET 0 0 0
                }
              }
            }
          }
        }
        JOINT Bip01_Neck
        {
          OFFSET 7.59958 -1.43237 0
          CHANNELS 6 Xposition Yposition Zposition Zrotation Xrotation Yrotation
          JOINT Bip01_Neck1
          {
            OFFSET 3.64749 -0.00262451 0
            CHANNELS 6 Xposition Yposition Zposition Zrotation Xrotation Yrotation
            JOINT Bip01_Neck2
            {
              OFFSET 3.32331 -0.00284576 0
              CHANNELS 6 Xposition Yposition Zposition Zrotation Xrotation Yrotation
              JOINT Bip01_Head
              {
                OFFSET 4.63256 -0.573471 0
                CHANNELS 6 Xposition Yposition Zposition Zrotation Xrotation Yrotation
                JOINT BN_Jaw
                {
                  OFFSET 1.05386 2.23561 0
                  CHANNELS 6 Xposition Yposition Zposition Zrotation Xrotation Yrotation
                  End Site
                  {
                    OFFSET 0 0 0
                  }
                }
              }
            }
          }
        }
      }
    }
  }
}
MOTION
Frames:	4
Frame Time:	0.0333333
-2.43362 24.9654 0 90 -85.8397 -180 -1.90735e-006 -2.77556e-017 4.44089e-016 -89.9962 9.9956 -89.9848 -5.75804 -0.180555 -0.00131829 -44.5858 -0.0172119 -179.958 10.2245 -0.117786 3.69867 19.4027 81.2741 -28.9944 15.0421 0.0149559 0.00137329 4.62192 -5.14176 -27.4832 10.2313 -0.121452 -3.67937 -138.189 77.8233 128.95 15.0421 0.0148997 -0.00141144 -4.50651 5.10109 -26.7349 3.04353 0.651138 0.000703588 -21.965 0.000228017 2.44048 0.00127506 0.000654221 -6.20578 -115.432 -11.4177 -179.327 6.73248 -3.8147e-006 -0.00121659 -55.0745 -1.50403e-005 -8.09558e-006 8.08522 0 -1.19209e-007 35.7113 4.61491e-006 1.00472e-005 8.9752 -9.53674e-007 -0.00110978 -14.6213 7.5796 -7.19179 1.58761 -0.235052 -0.295204 93.247 -2.27793 174.003 3.03847 -1.19209e-007 2.38419e-007 -26.0432 -0.00264701 -0.00420046 1.65469 0.933882 1.02382 80.7333 18.5198 -48.8045 3.51775 -4.76837e-007 0.00137424 28.566 -0.00519195 -0.0203377 1.47303 1.01034 -1.1674 72.6033 -3.47969 29.5238 3.94896 8.88179e-016 0.00230122 30.0191 -0.0081501 -0.0303999 1.07523 1.64225 0.0219277 64.0035 -6.28054 -0.027875 4.09656 4.76837e-007 0.0026192 34.7096 -0.00938855 -0.0300412 2.04239 1.88274 -0.000553846 89.9962 0.00494948 0.00988073 -0.00127697 -0.000650406 6.20578 -114.442 5.15418 176.892 6.73248 1.90735e-006 -0.00121164 -56.8765 3.38438e-007 1.37908e-006 8.08523 0 0 38.4594 8.03321e-006 -6.89366e-006 8.9752 0 -0.00114298 -14.6784 -14.0485 5.61461 1.65452 0.933532 -1.02449 79.8001 -19.5208 48.5654 3.51776 -0.000602007 0.00126457 28.9271 -0.00435895 -0.0169332 1.07516 1.64223 -0.0225497 64.5014 6.28168 0.0744246 4.09656 4.76837e-007 0.00261545 33.5171 -0.0191219 -0.0271076 1.58766 -0.234837 0.29509 103.341 3.29072 -174.477 3.03848 -2.38418e-007 -0.00060457 -0.549057 -5.35309e-005 0.0104944 1.47315 1.01086 1.16699 70.6541 4.57581 -29.2954 3.94897 0 0.00231409 29.3751 -0.0147484 -0.0286815 2.04232 1.88283 -0.000543237 90.0012 0.0049443 0.00987941 8.61405 -0.00592613 0.00176018 -32.0116 -6.99562e-008 -5.19478e-008 5.09892 -3.9506 -6.18498 54.5369 -50.9014 -163.617 14.7158 0.00251961 0.00192451 -176.33 38.0133 -8.10589 19.0859 0.000663757 -0.00384045 -158.517 -5.20599 -12.2639 2.68899 -0.270388 0.785737 -8.73628 2.89952 5.90408 21.1083 0.000980377 0.00369549 -4.33851 -0.898518 4.85314 27.642 0.00138474 0.00435829 -24.0167 -0.0678211 3.31117 5.09747 -3.95305 6.18461 54.5368 50.9014 163.617 14.7158 -0.00232887 0.00229645 -176.329 -38.0132 8.10627 19.0855 -0.00044632 -0.00601768 -158.517 5.20598 12.2639 2.68923 -0.270933 -0.784735 -8.73628 -2.89953 -5.90408 21.1083 -0.00132942 0.00426197 -4.3459 0.885779 -4.87811 27.642 -0.00181389 0.00510025 -24.0241 0.0621369 -3.33388 7.59887 -1.43249 0.000711143 -6.69785 -2.4675 0.377681 3.64807 -0.0026896 0.000335336 4.91587 -0.0031938 -2.19473 3.3235 -0.00294256 0.00041908 -1.21209 -1.07989 5.11415 4.63254 -0.573504 4.44089e-016 -6.94201 -3.33073 0.607596 1.05388 2.23561 -2.38419e-007 -99.603 0.0189209 179.975 
-2.43362 24.9535 -1.91095e-010 90.0001 -86.1605 -180 -1.90735e-006 -2.77556e-017 4.44089e-016 -89.9989 9.99943 -89.9989 -5.75804 -0.180555 -0.00131829 -44.5858 -0.0171356 -179.958 10.2245 -0.117786 3.69867 19.4028 81.2741 -28.9944 15.0421 0.0149559 0.00137329 4.81511 -5.21397 -27.4723 10.2313 -0.121452 -3.67937 -138.189 77.8233 128.95 15.0421 0.0148997 -0.00141144 -4.45695 5.07779 -26.7803 3.04353 0.651138 0.000580498 -21.6246 0.013586 2.43807 0.00127506 0.000654219 -6.20578 -115.572 -11.4496 -179.292 6.73248 -3.8147e-006 -0.00121659 -55.1677 -6.82661e-006 -1.38602e-005 8.08522 2.66454e-015 -1.19209e-007 35.6691 -1.23924e-006 1.91347e-006 8.9752 -9.53674e-007 -0.00110978 -14.6532 7.27144 -7.25627 1.58761 -0.235052 -0.295204 93.2653 -2.2835 174.015 3.03847 -1.19209e-007 2.38419e-007 -26.1126 -0.0018603 -0.00579827 1.65469 0.933882 1.02382 80.6557 18.6177 -48.816 3.51775 -4.76836e-007 0.00137424 28.547 0.00476084 -0.00205666 1.47303 1.01034 -1.1674 72.5926 -3.48729 29.4777 3.94896 5.49072e-012 0.00230122 30.002 -0.000149225 -0.0165612 1.07523 1.64225 0.0219277 63.898 -6.29952 -0.0486881 4.09656 4.76844e-007 0.0026192 34.6404 -0.0088553 -0.0293333 2.04239 1.88274 -0.000553845 89.9887 1.50202e-006 0.00988036 -0.00127697 -0.000650405 6.20578 -114.465 5.16165 176.918 6.73248 1.90735e-006 -0.00121164 -57.0948 3.23701e-007 1.36709e-006 8.08523 2.66454e-015 -8.88179e-016 38.6566 8.00651e-006 -6.92083e-006 8.9752 -4.79616e-014 -0.00114298 -14.6563 -14.3621 5.57524 1.65452 0.933532 -1.02449 79.7921 -19.5298 48.5309 3.51776 -0.000602007 0.00126457 28.9379 0.00382915 -0.00211633 1.07516 1.64223 -0.0225497 64.4988 6.28168 0.0747101 4.09656 4.76842e-007 0.00261545 33.5032 -0.0183312 -0.0259276 1.58766 -0.234837 0.29509 103.325 3.29413 -174.443 3.03848 -2.38418e-007 -0.00060457 -0.550025 4.877e-005 -0.000180408 1.47315 1.01086 1.16699 70.6401 4.56619 -29.3005 3.94897 3.9142e-012 0.00231409 29.377 -0.00642651 -0.0138964 2.04232 1.88283 -0.000543236 89.9962 -2.3532e-006 0.00987948 8.61405 -0.00592613 0.00176018 -32.1962 -0.000590174 0.00581381 5.09892 -3.9506 -6.18498 54.5408 -50.8933 -163.604 14.7163 0.000828914 0.00228739 -176.33 38.0132 -8.10587 19.0856 0.000669485 -0.000470987 -158.517 -5.20607 -12.2638 2.68899 -0.270388 0.785737 -8.73628 2.89951 5.90407 21.1083 0.000980377 0.00369549 -4.33978 -0.891977 4.86389 27.642 0.00138474 0.00435829 -24.0205 -0.0632735 3.32289 5.09747 -3.95305 6.18461 54.5499 50.8916 163.599 14.7158 -0.00232887 0.00229645 -176.329 -38.0134 8.10627 19.0873 0.000589378 -0.0022915 -158.517 5.20583 12.2639 2.68923 -0.270933 -0.784735 -8.73628 -2.89953 -5.90408 21.1083 -0.00132942 0.00426197 -4.3421 0.894598 -4.86602 27.642 -0.00181389 0.00510025 -24.0204 0.0656544 -3.32239 7.59887 -1.43249 0.000711143 -7.0116 -2.47174 0.366151 3.64807 -0.0026896 0.000335336 3.99598 0.0160329 -2.01662 3.3235 -0.00294256 0.00041908 -1.20342 -1.24072 5.55722 4.63254 -0.573504 -1.11446e-009 -5.66063 -5.21105 2.02306 1.05388 2.23561 -2.2617e-007 -99.6326 0.0192719 179.974 
-2.43362 24.942 -3.77144e-010 90 -86.4835 -180 -1.90735e-006 0 0 -89.999 9.9994 -89.9988 -5.75804 -0.180555 -0.00131829 -44.5858 -0.0172272 -179.958 10.2245 -0.117786 3.69867 19.4028 81.2741 -28.9944 15.0421 0.0149559 0.00137329 5.16436 -5.37777 -27.4404 10.2313 -0.121452 -3.67937 -138.189 77.8233 128.95 15.0421 0.0148997 -0.00141144 -4.30247 4.99787 -26.8186 3.04353 0.651138 0.000462288 -21.2825 0.0298442 2.43972 0.00127506 0.000654218 -6.20578 -115.715 -11.516 -179.238 6.73248 -3.8147e-006 -0.00121659 -55.2676 -7.93371e-006 -1.31152e-005 8.08522 2.66454e-015 -1.19209e-007 35.6276 -1.25234e-006 1.92198e-006 8.9752 -9.53674e-007 -0.00110978 -14.6857 6.96065 -7.32057 1.58761 -0.235052 -0.295204 93.283 -2.28893 174.027 3.03847 -1.19209e-007 2.38419e-007 -26.1802 -0.00109406 -0.00734509 1.65469 0.933882 1.02382 80.5797 18.7012 -48.7948 3.51775 -4.76835e-007 0.00137424 28.5237 0.00453759 -0.00246682 1.47303 1.01034 -1.1674 72.5737 -3.49882 29.4768 3.94896 1.06803e-011 0.00230122 29.9842 0.00725138 -0.0037437 1.07523 1.64225 0.0219277 63.8022 -6.29948 -0.0592261 4.09656 4.76851e-007 0.0026192 34.573 -0.00835568 -0.0286688 2.04239 1.88274 -0.000553844 89.9583 6.27904e-006 0.00988033 -0.00127697 -0.000650404 6.20578 -114.49 5.14895 176.959 6.73248 1.90735e-006 -0.00121164 -57.3201 3.15766e-007 1.35544e-006 8.08523 2.66454e-015 -8.88179e-016 38.8563 7.97482e-006 -6.94409e-006 8.9752 8.52651e-014 -0.00114298 -14.6378 -14.6788 5.53456 1.65452 0.933532 -1.02449 79.7921 -19.5298 48.5309 3.51776 -0.000602007 0.00126457 28.9379 0.00382876 -0.00211633 1.07516 1.64223 -0.0225497 64.4988 6.28168 0.0747068 4.09656 4.76846e-007 0.00261545 33.4897 -0.0175562 -0.0247699 1.58766 -0.234837 0.29509 103.31 3.29745 -174.41 3.03848 -2.38419e-007 -0.00060457 -0.550972 0.000148344 -0.0105345 1.47315 1.01086 1.16699 70.6401 4.56619 -29.3005 3.94897 7.32747e-012 0.00231409 29.3788 0.00125996 -0.000242346 2.04232 1.88283 -0.000543235 89.9962 -2.348e-006 0.00987945 8.61405 -0.00592613 0.00176018 -32.3688 0.00212888 0.0202439 5.09892 -3.9506 -6.18498 54.5116 -50.8945 -163.661 14.7163 0.000154868 0.00225217 -176.33 38.0133 -8.10589 19.0857 0.000478337 -7.10864e-005 -158.517 -5.20597 -12.2639 2.68899 -0.270388 0.785737 -8.73628 2.89944 5.90407 21.1083 0.000980377 0.00369549 -4.34222 -0.892083 4.86387 27.642 0.00138474 0.00435829 -24.0205 -0.0632887 3.32288 5.09747 -3.95305 6.18461 54.5509 50.8865 163.615 14.7158 -0.00232887 0.00229645 -176.329 -38.0132 8.10626 19.0878 0.000783041 -0.0022915 -158.517 5.20595 12.2639 2.68923 -0.270933 -0.784735 -8.73628 -2.89957 -5.90408 21.1083 -0.00132942 0.00426197 -4.3422 0.892189 -4.8668 27.642 -0.00181389 0.00510025 -24.0205 0.0632604 -3.32289 7.59887 -1.43249 0.000711142 -7.32807 -2.47227 0.352161 3.64807 -0.0026896 0.000335336 3.03764 0.0351837 -1.82989 3.3235 -0.00294256 0.00041908 -1.19253 -1.41312 6.02911 4.63254 -0.573504 -2.34704e-009 -4.31547 -7.15995 3.47363 1.05388 2.23561 -2.10433e-007 -99.6613 0.0196228 179.974 
-2.43362 24.9303 -5.65378e-010 90 -86.8171 -180 -1.90735e-006 0 0 -89.9989 9.99943 -89.9989 -5.75804 -0.180555 -0.00131829 -44.5858 -0.0171509 -179.958 10.2245 -0.117786 3.69867 19.4029 81.2741 -28.9946 15.0421 0.0149559 0.00137329 5.63708 -5.60974 -27.3896 10.2313 -0.121452 -3.67937 -138.189 77.8233 128.95 15.0421 0.0148997 -0.00141144 -4.06961 4.87132 -26.8487 3.04353 0.651138 0.000340368 -20.9326 0.045372 2.44005 0.00127506 0.000654217 -6.20578 -115.868 -11.529 -179.219 6.73248 -3.8147e-006 -0.00121659 -55.3771 -6.77902e-006 -1.39506e-005 8.08522 3.55271e-015 -1.19209e-007 35.5857 -7.84829e-007 2.58242e-006 8.9752 -9.53674e-007 -0.00110978 -14.7218 6.64166 -7.38621 1.58761 -0.235052 -0.295204 93.3009 -2.29441 174.039 3.03847 -1.19209e-007 2.38419e-007 -26.2485 -0.000311977 -0.00891463 1.65469 0.933882 1.02382 80.5051 18.7834 -48.7748 3.51775 -4.76834e-007 0.00137424 28.4833 0.00454401 -0.00245477 1.47303 1.01034 -1.1674 72.5355 -3.51728 29.475 3.94896 1.68265e-011 0.00230122 29.9442 0.00706334 -0.00406949 1.07523 1.64225 0.0219277 63.7053 -6.29998 -0.0701619 4.09656 4.76858e-007 0.0026192 34.5048 -0.00782631 -0.0279583 2.04239 1.88274 -0.000553842 89.9068 -1.26457e-005 0.00988027 -0.00127697 -0.000650403 6.20578 -114.521 5.09597 177.023 6.73248 1.90735e-006 -0.00121164 -57.5583 3.16349e-007 1.34475e-006 8.08523 8.88178e-016 8.88179e-016 39.065 7.93646e-006 -6.96332e-006 8.9752 5.1692e-013 -0.00114298 -14.6173 -15.0038 5.4914 1.65452 0.933532 -1.02449 79.7921 -19.5298 48.5309 3.51776 -0.000602007 0.00126457 28.9379 0.00382847 -0.00211614 1.07516 1.64223 -0.0225497 64.4988 6.28168 0.0747101 4.09656 4.76851e-007 0.00261545 33.4761 -0.0167667 -0.023589 1.58766 -0.234837 0.29509 103.301 3.29982 -174.388 3.03848 -2.38419e-007 -0.00060457 -0.551925 0.000249842 -0.0210525 1.47315 1.01086 1.16699 70.6401 4.56622 -29.3004 3.94897 1.02576e-011 0.00231409 29.3787 0.00106082 -0.000596074 2.04232 1.88283 -0.000543234 89.9962 -2.3421e-006 0.00987942 8.61405 -0.00592613 0.00176018 -32.5375 0.00460585 0.0408129 5.09892 -3.9506 -6.18498 54.5078 -50.8629 -163.652 14.7163 -0.000393772 0.00216327 -176.33 38.0132 -8.10588 19.0859 0.000280217 -7.10863e-005 -158.517 -5.20599 -12.2639 2.68899 -0.270388 0.785737 -8.73628 2.89952 5.90408 21.1083 0.000980377 0.00369549 -4.34222 -0.892109 4.86387 27.642 0.00138474 0.00435829 -24.0205 -0.0633956 3.32283 5.09747 -3.95305 6.18461 54.5824 50.8492 163.579 14.7158 -0.00232887 0.00229645 -176.329 -38.0132 8.10626 19.0878 0.000783041 -0.0022915 -158.517 5.20599 12.2639 2.68923 -0.270933 -0.784735 -8.73628 -2.89955 -5.90408 21.1083 -0.00132942 0.00426197 -4.34221 0.892105 -4.86451 27.642 -0.00181389 0.00510025 -24.0202 0.0632113 -3.3229 7.59887 -1.43249 0.000711142 -7.65912 -2.47421 0.337824 3.64807 -0.0026896 0.000335336 2.01972 0.0496302 -1.6311 3.3235 -0.00294256 0.00041908 -1.17988 -1.58965 6.51219 4.63254 -0.573504 -3.6646e-009 -2.89735 -9.26391 4.97634 1.05388 2.23561 -1.90171e-007 -99.6904 0.0199432 179.973 
